<svg xmlns="http://www.w3.org/2000/svg" version="1.1" xmlns:xlink="http://www.w3.org/1999/xlink" xmlns:svgjs="http://svgjs.dev/svgjs" width="1440" height="560" preserveAspectRatio="none" viewBox="0 0 1440 560"><g mask="url(&quot;#SvgjsMask1000&quot;)" fill="none"><rect width="1440" height="560" x="0" y="0" fill="#1e3266"></rect><path d="M1536 560L0 560 L0 347.91Q73.78 301.69, 120 375.47Q120.36 303.83, 192 304.19Q216.5 256.69, 264 281.2Q351.96 249.16, 384 337.13Q430 311.13, 456 357.12Q463.86 292.98, 528 300.83Q579.47 232.3, 648 283.77Q698.88 262.65, 720 313.54Q785.52 259.06, 840 324.59Q881.94 246.53, 960 288.48Q1048.5 256.98, 1080 345.48Q1124.67 270.15, 1200 314.83Q1222.57 265.4, 1272 287.97Q1326.89 270.86, 1344 325.75Q1399.91 309.66, 1416 365.58Q1438.32 267.9, 1536 290.22z" fill="#182f5d"></path><path d="M1536 560L0 560 L0 425.9Q39.66 393.56, 72 433.22Q118.5 359.73, 192 406.23Q235.74 377.97, 264 421.71Q336.77 374.48, 384 447.24Q394.04 385.28, 456 395.32Q472.52 339.84, 528 356.35Q598.44 306.79, 648 377.23Q731.76 341, 768 424.76Q833.74 370.5, 888 436.23Q892.58 368.81, 960 373.39Q985.62 327.01, 1032 352.63Q1089.43 338.06, 1104 395.49Q1152.22 323.71, 1224 371.93Q1251.82 327.75, 1296 355.56Q1394.22 333.78, 1416 432.01Q1446.07 342.07, 1536 372.14z" fill="#25467d"></path><path d="M1464 560L0 560 L0 435.17Q75.83 439, 72 514.83Q120.78 443.61, 192 492.39Q234.19 414.58, 312 456.77Q337.87 410.64, 384 436.51Q442.05 422.56, 456 480.61Q506.81 411.42, 576 462.22Q626.86 393.08, 696 443.94Q792.36 420.3, 816 516.67Q830.62 411.28, 936 425.9Q1006.65 376.55, 1056 447.2Q1120.34 439.53, 1128 503.87Q1146.37 450.24, 1200 468.61Q1214.3 410.91, 1272 425.21Q1316.34 397.55, 1344 441.89Q1409.18 387.07, 1464 452.26z" fill="#356cb1"></path><path d="M1464 560L0 560 L0 506.39Q80.41 466.8, 120 547.21Q199.23 506.44, 240 585.67Q293.69 519.36, 360 573.04Q386.57 479.61, 480 506.17Q532.08 438.25, 600 490.33Q698.1 468.43, 720 566.53Q774.54 501.07, 840 555.6Q871.04 466.64, 960 497.68Q1005.88 471.55, 1032 517.43Q1120.56 485.98, 1152 574.54Q1172.43 474.97, 1272 495.4Q1349.23 452.63, 1392 529.87Q1446.83 512.7, 1464 567.53z" fill="white"></path></g><defs><mask id="SvgjsMask1000"><rect width="1440" height="560" fill="#ffffff"></rect></mask></defs></svg>