<svg xmlns="http://www.w3.org/2000/svg" version="1.1" xmlns:xlink="http://www.w3.org/1999/xlink" xmlns:svgjs="http://svgjs.dev/svgjs" width="2600" height="1600" preserveAspectRatio="none" viewBox="0 0 2600 1600"><g mask="url(&quot;#SvgjsMask1096&quot;)" fill="none"><rect width="2600" height="1600" x="0" y="0" fill="#1e3266"></rect><path d="M2729.9999999999995 1600L0 1600 L0 674.79Q227.7 685.83, 216.66666666666669 913.53Q308.38 875.24, 346.6666666666667 966.95Q400.85 891.13, 476.6666666666667 945.32Q528.23 780.21, 693.3333333333334 831.77Q781.09 702.86, 910 790.61Q1007.28 671.22, 1126.6666666666667 768.5Q1180.64 605.81, 1343.3333333333335 659.79Q1426.34 612.8, 1473.3333333333335 695.81Q1635.24 727.72, 1603.3333333333335 889.63Q1586.22 742.52, 1733.3333333333335 725.41Q1768.88 630.95, 1863.3333333333335 666.5Q2021 607.5, 2080 765.16Q2170.9 639.4, 2296.6666666666665 730.3Q2467.13 684.1, 2513.333333333333 854.56Q2640.03 764.59, 2729.9999999999995 891.28z" fill="#182f5d"></path><path d="M2686.6666666666665 1600L0 1600 L0 1029.9Q120.98 1020.88, 130 1141.87Q244.81 1040.02, 346.6666666666667 1154.83Q425.62 1017.12, 563.3333333333334 1096.07Q669.78 1072.51, 693.3333333333334 1178.96Q746.52 1102.15, 823.3333333333334 1155.34Q843.48 1045.49, 953.3333333333334 1065.64Q1002.72 898.36, 1170 947.75Q1253.62 814.71, 1386.6666666666667 898.33Q1530.34 825.34, 1603.3333333333335 969.02Q1702.87 938.55, 1733.3333333333335 1038.09Q1784.96 959.71, 1863.3333333333335 1011.34Q2003.69 935.03, 2080 1075.38Q2186.19 1051.57, 2210 1157.76Q2349.2 1080.29, 2426.6666666666665 1219.49Q2467.58 1130.4, 2556.6666666666665 1171.31Q2604.29 1088.93, 2686.6666666666665 1136.56z" fill="#25467d"></path><path d="M2600.0000000000005 1600L0 1600 L0 1273.92Q112.69 1169.94, 216.66666666666669 1282.63Q354.32 1203.62, 433.33333333333337 1341.28Q484.18 1262.13, 563.3333333333334 1312.98Q612.13 1145.11, 780 1193.9Q880.35 1077.58, 996.6666666666667 1177.93Q1076.51 1127.77, 1126.6666666666667 1207.61Q1286.07 1150.35, 1343.3333333333335 1309.75Q1507.57 1257.32, 1560.0000000000002 1421.55Q1685.23 1330.12, 1776.666666666667 1455.35Q1831.54 1293.56, 1993.3333333333337 1348.43Q1994.79 1219.88, 2123.333333333334 1221.34Q2143.65 1111.65, 2253.333333333334 1131.97Q2333.41 1082.05, 2383.333333333334 1162.13Q2509.19 1071.32, 2600.0000000000005 1197.18z" fill="#356cb1"></path><path d="M2730 1600L0 1600 L0 1639.35Q-45.71 1463.63, 130 1417.92Q183.82 1341.74, 260 1395.57Q375.13 1380.69, 390 1495.82Q472.94 1362.09, 606.6666666666667 1445.03Q683.16 1391.53, 736.6666666666667 1468.02Q887.26 1488.61, 866.6666666666667 1639.2Q956.37 1598.9, 996.6666666666667 1688.61Q1011.03 1572.97, 1126.6666666666667 1587.34Q1147.05 1391.05, 1343.3333333333335 1411.43Q1399.72 1337.82, 1473.3333333333335 1394.21Q1657.17 1361.38, 1690.0000000000002 1545.21Q1771.97 1410.51, 1906.666666666667 1492.48Q2009.58 1465.39, 2036.666666666667 1568.31Q2055.14 1456.78, 2166.666666666667 1475.26Q2234.83 1326.76, 2383.3333333333335 1394.92Q2464.37 1345.95, 2513.3333333333335 1426.99Q2657 1353.99, 2730 1497.66z" fill="white"></path></g><defs><mask id="SvgjsMask1096"><rect width="2600" height="1600" fill="#ffffff"></rect></mask></defs></svg>